# File created by Blade
# Date/Time:  Wed Jan 21 16:09:38 2015
# Frame Rate: 120.000 fps
#------------------------------------------------------
:FULLY-SPECIFIED
:DEGREES
682
root 20.107179 35.166863 -21.593696 -161.572022 58.968949 -176.821540
Spine 7.943141 -5.567943 6.458710
Head -11.561166 1.364992 0.422673
LeftShoulder -15.551716 -34.152225 24.509113
LeftArm -40.017789 -8.339870 -20.142785
LeftForeArm -21.773519 -0.000000 1.202135
LeftHand -9.666421 -0.000000 9.375548
LeftHandThumb1 -26.253704 0.000000 33.147579
RightShoulder -11.193104 -1.549852 -15.894438
RightArm -13.504608 43.736377 15.426721
RightForeArm -20.712332 -0.000000 12.116586
RightHand -20.018191 -0.000000 -14.811090
RightHandThumb1 -24.326973 -0.000000 -32.862282
LeftUpLeg 6.747898 -5.641555 5.650806
LeftLeg -2.914815 -0.000000 0.000000
LeftFoot 6.435705 18.632626 5.086749
LeftToeBase -161.366108 -0.000000 0.000000
RightUpLeg -24.224660 -12.759883 9.670469
RightLeg -5.088806 -0.000000 0.000000
RightFoot -4.239349 -35.586857 0.240785
RightToeBase 7.721140 -0.000000 -0.000000
683
root 20.221687 35.198428 -21.587302 -162.044312 58.161299 -177.030450
Spine 7.387501 -5.478382 6.378962
Head -11.083514 1.220126 0.362774
LeftShoulder -15.594550 -34.047831 24.490920
LeftArm -39.434764 -8.218670 -20.264702
LeftForeArm -21.268805 -0.000000 1.328383
LeftHand -9.725893 -0.000000 9.854380
LeftHandThumb1 -26.253704 0.000000 33.147579
RightShoulder -11.264985 -1.644836 -15.865071
RightArm -13.158043 43.685532 15.478261
RightForeArm -20.986666 -0.000000 11.887356
RightHand -19.862350 -0.000000 -14.738380
RightHandThumb1 -24.326973 -0.000000 -32.862282
LeftUpLeg 6.727368 -5.903931 5.907864
LeftLeg -2.513573 -0.000000 0.000000
LeftFoot 6.865859 18.334594 4.846443
LeftToeBase -162.026714 -0.000000 0.000000
RightUpLeg -23.691046 -13.314248 9.669777
RightLeg -5.180872 -0.000000 0.000000
RightFoot -4.648286 -35.874533 0.538620
RightToeBase 7.148035 -0.000000 -0.000000
684
root 20.331587 35.231922 -21.583469 -162.560530 57.361214 -177.275451
Spine 6.883083 -5.383300 6.259017
Head -10.640356 1.136277 0.285225
LeftShoulder -15.604774 -34.103289 24.493503
LeftArm -38.925219 -7.887432 -20.381915
LeftForeArm -20.635866 -0.000000 1.376092
LeftHand -9.634388 -0.000000 10.031988
LeftHandThumb1 -26.253704 0.000000 33.147579
RightShoulder -11.284627 -1.677190 -15.886340
RightArm -12.979622 43.697209 15.479591
RightForeArm -21.205530 -0.000000 11.736294
RightHand -19.755346 -0.000000 -14.571794
RightHandThumb1 -24.326973 -0.000000 -32.862282
LeftUpLeg 6.718448 -6.172262 6.122320
LeftLeg -2.101480 -0.000000 0.000000
LeftFoot 7.355430 17.923316 4.668104
LeftToeBase -162.906397 -0.000000 0.000000
RightUpLeg -23.181415 -13.825207 9.598272
RightLeg -5.194426 -0.000000 0.000000
RightFoot -5.082818 -36.243778 0.880367
RightToeBase 6.858959 -0.000000 -0.000000
685
root 20.437039 35.268499 -21.582089 -163.035921 56.559688 -177.514206
Spine 6.366946 -5.268164 6.153973
Head -10.225792 1.085861 0.180280
LeftShoulder -15.588905 -34.143458 24.423691
LeftArm -38.422347 -7.658830 -20.359670
LeftForeArm -19.859295 -0.000000 1.463831
LeftHand -9.600711 -0.000000 10.149668
LeftHandThumb1 -26.253704 0.000000 33.147579
RightShoulder -11.369699 -1.755874 -15.869567
RightArm -12.681624 43.675372 15.556190
RightForeArm -21.438003 -0.000000 11.553958
RightHand -19.673670 0.000000 -14.655781
RightHandThumb1 -24.326973 -0.000000 -32.862282
LeftUpLeg 6.654121 -6.469408 6.325709
LeftLeg -1.700994 -0.000000 0.000000
LeftFoot 7.828936 17.676371 4.390063
LeftToeBase -163.618502 -0.000000 0.000000
RightUpLeg -22.718994 -14.376973 9.540292
RightLeg -5.194517 -0.000000 0.000000
RightFoot -5.574193 -36.538742 1.384808
RightToeBase 6.270190 -0.000000 -0.000000
686
root 20.541536 35.304989 -21.574817 -163.415691 55.764732 -177.708408
Spine 5.797714 -5.105175 6.047114
Head -9.806454 1.036021 0.113216
LeftShoulder -15.533845 -34.174912 24.344931
LeftArm -37.876010 -7.283998 -20.447064
LeftForeArm -19.216195 -0.000000 1.547694
LeftHand -9.625017 0.000000 10.526939
LeftHandThumb1 -26.253704 0.000000 33.147579
RightShoulder -11.430443 -1.783168 -15.886909
RightArm -12.535368 43.671872 15.578450
RightForeArm -21.723122 -0.000000 11.441228
RightHand -19.531052 0.000000 -14.577247
RightHandThumb1 -24.326973 -0.000000 -32.862282
LeftUpLeg 6.522295 -6.733198 6.565640
LeftLeg -1.283408 -0.000000 0.000000
LeftFoot 8.252603 17.339018 4.241310
LeftToeBase -164.110791 -0.000000 0.000000
RightUpLeg -22.338838 -14.868471 9.496853
RightLeg -5.143546 -0.000000 0.000000
RightFoot -6.000647 -36.865286 1.813997
RightToeBase 5.939830 -0.000000 -0.000000
687
root 20.643792 35.342897 -21.577424 -163.877567 54.970072 -177.953845
Spine 5.300872 -4.944474 5.908008
Head -9.408105 1.011459 0.046871
LeftShoulder -15.497732 -34.197549 24.280653
LeftArm -37.364614 -7.120826 -20.397734
LeftForeArm -18.312167 -0.000000 1.690005
LeftHand -9.624541 -0.000000 10.589431
LeftHandThumb1 -26.253704 0.000000 33.147579
RightShoulder -11.525648 -1.797191 -15.882526
RightArm -12.314768 43.562166 15.619199
RightForeArm -21.836281 -0.000000 11.264909
RightHand -19.361989 0.000000 -14.515014
RightHandThumb1 -24.326973 -0.000000 -32.862282
LeftUpLeg 6.421020 -6.928436 6.751975
LeftLeg -0.890252 -0.000000 0.000000
LeftFoot 8.742444 17.119675 3.918480
LeftToeBase -164.703523 -0.000000 0.000000
RightUpLeg -21.929373 -15.445293 9.422763
RightLeg -5.074592 -0.000000 0.000000
RightFoot -6.391526 -37.047976 2.203848
RightToeBase 5.235490 -0.000000 -0.000000
688
root 20.737844 35.382066 -21.573503 -164.327465 54.185759 -178.210366
Spine 4.829563 -4.797702 5.723293
Head -9.045311 0.999385 -0.000575
LeftShoulder -15.458345 -34.238037 24.260388
LeftArm -36.828145 -6.835628 -20.434955
LeftForeArm -17.498235 -0.000000 1.748949
LeftHand -9.638354 -0.000000 10.829808
LeftHandThumb1 -26.253704 0.000000 33.147579
RightShoulder -11.552304 -1.804404 -15.876530
RightArm -12.184222 43.485114 15.658751
RightForeArm -22.029538 0.000000 11.161745
RightHand -19.289942 0.000000 -14.316525
RightHandThumb1 -24.326973 -0.000000 -32.862282
LeftUpLeg 6.278179 -7.105567 6.931003
LeftLeg -0.478297 -0.000000 0.000000
LeftFoot 9.194655 16.735624 3.613187
LeftToeBase -165.353820 -0.000000 0.000000
RightUpLeg -21.544460 -15.829579 9.268178
RightLeg -4.985372 -0.000000 0.000000
RightFoot -6.762888 -37.404191 2.546038
RightToeBase 4.959182 -0.000000 -0.000000
689
root 20.840142 35.418308 -21.575088 -164.738396 53.344275 -178.440939
Spine 4.308235 -4.739882 5.569462
Head -8.679213 1.117130 -0.094134
LeftShoulder -15.489453 -34.134038 24.214697
LeftArm -36.193536 -6.640374 -20.445526
LeftForeArm -16.623331 -0.000000 1.794697
LeftHand -9.644766 -0.000000 10.818475
LeftHandThumb1 -26.253704 0.000000 33.147579
RightShoulder -11.569537 -1.838301 -15.893266
RightArm -12.019819 43.545636 15.711831
RightForeArm -22.247458 -0.000000 11.031186
RightHand -19.228603 -0.000000 -14.236267
RightHandThumb1 -24.326973 -0.000000 -32.862282
LeftUpLeg 6.138339 -7.293281 7.141881
LeftLeg -0.115892 -0.000000 0.000000
LeftFoot 9.716696 16.439664 3.320104
LeftToeBase -166.063410 -0.000000 0.000000
RightUpLeg -21.132112 -16.340614 9.180265
RightLeg -4.993953 -0.000000 0.000000
RightFoot -7.094242 -37.719771 2.888870
RightToeBase 4.636960 -0.000000 -0.000000
690
root 20.944035 35.452391 -21.576080 -165.133486 52.523124 -178.652076
Spine 3.799507 -4.608873 5.399928
Head -8.285100 1.167610 -0.156177
LeftShoulder -15.396343 -34.174502 24.123446
LeftArm -35.666137 -6.167445 -20.477784
LeftForeArm -15.840645 0.000000 1.908634
LeftHand -9.683653 0.000000 10.868085
LeftHandThumb1 -26.253704 0.000000 33.147579
RightShoulder -11.655306 -1.925667 -15.896175
RightArm -11.771812 43.548027 15.838129
RightForeArm -22.441361 0.000000 10.901629
RightHand -19.089951 -0.000000 -13.960216
RightHandThumb1 -24.326973 -0.000000 -32.862282
LeftUpLeg 6.034453 -7.445795 7.354894
LeftLeg 0.202027 -0.000000 -0.000000
LeftFoot 10.220799 16.094061 3.131560
LeftToeBase -166.517802 -0.000000 0.000000
RightUpLeg -20.738719 -16.786098 9.077944
RightLeg -4.956056 -0.000000 0.000000
RightFoot -7.502730 -38.122720 3.319605
RightToeBase 4.407609 -0.000000 -0.000000
691
root 21.049167 35.486678 -21.584837 -165.637427 51.664747 -178.898010
Spine 3.397762 -4.469461 5.183412
Head -7.890524 1.166881 -0.160397
LeftShoulder -15.329030 -34.343042 24.138616
LeftArm -35.123116 -5.813175 -20.429989
LeftForeArm -14.834599 0.000000 1.865175
LeftHand -9.494476 -0.000000 11.004376
LeftHandThumb1 -26.253704 0.000000 33.147579
RightShoulder -11.705681 -1.905505 -15.850636
RightArm -11.685541 43.432122 15.756938
RightForeArm -22.639715 -0.000000 10.622723
RightHand -18.823575 -0.000000 -13.665106
RightHandThumb1 -24.326973 -0.000000 -32.862282
LeftUpLeg 6.024849 -7.690455 7.522588
LeftLeg 0.474414 -0.000000 -0.000000
LeftFoot 10.801739 15.863978 2.744266
LeftToeBase -166.982057 -0.000000 0.000000
RightUpLeg -20.237838 -17.344185 8.944582
RightLeg -4.968171 -0.000000 0.000000
RightFoot -7.877014 -38.476924 3.719953
RightToeBase 4.481485 -0.000000 -0.000000
